<svg id="Logo" xmlns="http://www.w3.org/2000/svg" xmlns:xlink="http://www.w3.org/1999/xlink" viewBox="0 0 604.33 177.34"><defs><style>.cls-1{stroke:#000;stroke-miterlimit:10;stroke-width:3px;}.cls-2{fill:url(#linear-gradient);}</style><linearGradient id="linear-gradient" x1="1.9" y1="88.68" x2="602.83" y2="88.68" gradientUnits="userSpaceOnUse"><stop offset="0.08" stop-color="#052"/><stop offset="0.29" stop-color="#0e8818"/><stop offset="0.53" stop-color="#1cbb0e"/><stop offset="0.73" stop-color="#26e006"/><stop offset="0.9" stop-color="#2df702"/><stop offset="1" stop-color="#2fff00"/></linearGradient></defs><title>what-to-do-logo</title><polygon class="cls-1" points="1.91 1.68 42.57 169.01 65.57 169.01 90.57 40.84 125.24 169.01 151.57 169.01 181.24 2.01 153.57 2.01 134.57 124.84 102.57 2.01 77.57 2.01 54.57 118.01 25.24 1.51 1.91 1.68"/><polygon class="cls-1" points="185.07 168.01 185.07 2.01 204.07 2.01 204.07 100.01 230.07 100.01 230.07 2.01 250.07 2.01 250.07 169.01 230.07 169.01 230.07 131.01 203.57 131.01 202.07 168.01 185.07 168.01"/><path class="cls-1" d="M302,125.5H285L258.33,290.92l19.33,0.33L280,264.5h35l5.67,27.67,21-1.17Zm-21.67,123,12.67-98,20.67,98H280.33Z" transform="translate(-2.43 -122.49)"/><polygon class="cls-1" points="310.07 2.01 310.07 30.01 363.07 30.01 363.07 169.01 392.07 169.01 392.07 30.01 441.07 30.01 441.07 2.01 310.07 2.01"/><polygon class="cls-1" points="446.07 7.01 446.07 25.01 477.07 25.01 477.07 94.01 495.07 94.01 495.07 25.01 527.07 25.01 527.07 7.01 446.07 7.01"/><path class="cls-1" d="M515.5,233l-2.42-5.25-6.42-7.25H497L464.5,219v78.5H501l6.33-4.5,6.58-7.08L518.5,275V240Zm-7,29v10.33l-3.58,10.5L499,288.5H473.5v-57H504l4.5,8.5v22Z" transform="translate(-2.43 -122.49)"/><path class="cls-1" d="M601.67,157c-1.28-3.15-6.66-16.4-20-22.67-3.09-1.45-8.29-3.81-14.67-2.67-5.12.91-8.48,3.63-11.33,6a47.66,47.66,0,0,0-14,20.67,51.31,51.31,0,0,0-1.33,29.33c1.24,4.66,4.4,16.53,15.33,24a28.65,28.65,0,0,0,14,5.33c10.73,0.92,18.58-5.07,20.67-6.67,10.86-8.29,13-20.84,14-26.67A50.15,50.15,0,0,0,601.67,157Zm-14,30c-1.41,4.1-3.48,10.13-9.33,13.33-1.08.59-6,3.28-10.67,1.33-1.38-.58-3.78-2-6.67-8.67a45.66,45.66,0,0,1-4-23.33c0.44-4.7,1.24-12.2,6.67-18.67,1.91-2.28,3.46-4.13,6-4.67,6.81-1.44,14.69,7.86,18,15.33C592.56,172.73,589,183.18,587.67,187Z" transform="translate(-2.43 -122.49)"/><path class="cls-1" d="M601.67,239c-0.82-1.59-7.4-13.92-21.33-17.33-2.63-.64-11.58-2.84-19.33,2-2,1.24-4.19,3.13-7.33,8-4.14,6.41-9.68,15-10,27.33-0.1,3.83-.06,21.89,13.33,32.67,2.33,1.87,8.26,6.65,16.67,6.67,10.88,0,18.14-7.91,20.67-10.67,6.63-7.24,8.23-15.21,9.33-20.67C605.09,259.93,607.16,249.68,601.67,239ZM585,279c-0.53.7-6.75,8.67-14.67,7.33-5.67-1-8.84-6.12-10-8-4.1-6.67-3.24-13.64-2-22.67,1.55-11.28,2.58-18.78,8.67-22a14.53,14.53,0,0,1,14,.67c6.2,3.93,6.67,12.06,7.33,23.33C588.89,267.19,589.25,273.38,585,279Z" transform="translate(-2.43 -122.49)"/><polygon class="cls-2" points="1.91 1.68 42.57 169.01 65.57 169.01 90.57 40.84 125.24 169.01 151.57 169.01 181.24 2.01 153.57 2.01 134.57 124.84 102.57 2.01 77.57 2.01 54.57 118.01 25.24 1.51 1.91 1.68"/><polygon class="cls-2" points="185.07 168.01 185.07 2.01 204.07 2.01 204.07 100.01 230.07 100.01 230.07 2.01 250.07 2.01 250.07 169.01 230.07 169.01 230.07 131.01 203.57 131.01 202.07 168.01 185.07 168.01"/><path class="cls-2" d="M302,125.5H285L258.33,290.92l19.33,0.33L280,264.5h35l5.67,27.67,21-1.17Zm-21.67,123,12.67-98,20.67,98H280.33Z" transform="translate(-2.43 -122.49)"/><polygon class="cls-2" points="310.07 2.01 310.07 30.01 363.07 30.01 363.07 169.01 392.07 169.01 392.07 30.01 441.07 30.01 441.07 2.01 310.07 2.01"/><polygon class="cls-2" points="446.07 7.01 446.07 25.01 477.07 25.01 477.07 94.01 495.07 94.01 495.07 25.01 527.07 25.01 527.07 7.01 446.07 7.01"/><path class="cls-2" d="M515.5,233l-2.42-5.25-6.42-7.25H497L464.5,219v78.5H501l6.33-4.5,6.58-7.08L518.5,275V240Zm-7,29v10.33l-3.58,10.5L499,288.5H473.5v-57H504l4.5,8.5v22Z" transform="translate(-2.43 -122.49)"/><path class="cls-2" d="M601.67,157c-1.28-3.15-6.66-16.4-20-22.67-3.09-1.45-8.29-3.81-14.67-2.67-5.12.91-8.48,3.63-11.33,6a47.66,47.66,0,0,0-14,20.67,51.31,51.31,0,0,0-1.33,29.33c1.24,4.66,4.4,16.53,15.33,24a28.65,28.65,0,0,0,14,5.33c10.73,0.92,18.58-5.07,20.67-6.67,10.86-8.29,13-20.84,14-26.67A50.15,50.15,0,0,0,601.67,157Zm-14,30c-1.41,4.1-3.48,10.13-9.33,13.33-1.08.59-6,3.28-10.67,1.33-1.38-.58-3.78-2-6.67-8.67a45.66,45.66,0,0,1-4-23.33c0.44-4.7,1.24-12.2,6.67-18.67,1.91-2.28,3.46-4.13,6-4.67,6.81-1.44,14.69,7.86,18,15.33C592.56,172.73,589,183.18,587.67,187Z" transform="translate(-2.43 -122.49)"/><path class="cls-2" d="M601.67,239c-0.82-1.59-7.4-13.92-21.33-17.33-2.63-.64-11.58-2.84-19.33,2-2,1.24-4.19,3.13-7.33,8-4.14,6.41-9.68,15-10,27.33-0.1,3.83-.06,21.89,13.33,32.67,2.33,1.87,8.26,6.65,16.67,6.67,10.88,0,18.14-7.91,20.67-10.67,6.63-7.24,8.23-15.21,9.33-20.67C605.09,259.93,607.16,249.68,601.67,239ZM585,279c-0.53.7-6.75,8.67-14.67,7.33-5.67-1-8.84-6.12-10-8-4.1-6.67-3.24-13.64-2-22.67,1.55-11.28,2.58-18.78,8.67-22a14.53,14.53,0,0,1,14,.67c6.2,3.93,6.67,12.06,7.33,23.33C588.89,267.19,589.25,273.38,585,279Z" transform="translate(-2.43 -122.49)"/></svg>